# xmcd
#
# Track frame offsets: 
#        150
#        19720
#        36768
#        55657
#        77993
#        93685
#        120238
#        137711
#        158071
#        170799
#        186669
#        204328
#
# Disc length: 3076 seconds
#
# Revision: 0
# Processed by: cddbd v1.5.2PL0 Copyright (c) Steve Scherf et al.
# Submitted via: ExactAudioCopy v0.95b4
#
DISCID=a00c020c
DTITLE=Das blaue Einhorn - Verkauf dein Pferd ! [CD2)
DYEAR=2007
DGENRE=Folk
TTITLE0=Nobody
TTITLE1=Maria
TTITLE2=Nach Süden
TTITLE3=Ojfn Weg Schtejt A Bojm
TTITLE4=Anterija
TTITLE5=Koni Priveredlivye
TTITLE6=Aeroplano A Vela
TTITLE7=Agapi
TTITLE8=Aide Jano
TTITLE9=L'unna Ru Mari
TTITLE10=Uzicko Kolo
TTITLE11=Das blaue Einhorn
EXTD=
EXTT0=
EXTT1=
EXTT2=
EXTT3=
EXTT4=
EXTT5=
EXTT6=
EXTT7=
EXTT8=
EXTT9=
EXTT10=
EXTT11=
PLAYORDER=
